<svg width="289" height="517" viewBox="0 0 289 517" fill="none" xmlns="http://www.w3.org/2000/svg">
<path d="M288.341 98.9091L270.23 205.443H0.698865L18.8097 98.9091H288.341ZM86.9915 0.897719H234.009L171.686 376.43C170.798 382.112 170.976 386.906 172.219 390.812C173.462 394.541 175.947 397.382 179.676 399.335C183.582 401.111 188.732 401.999 195.124 401.999C199.385 401.999 204.623 401.466 210.837 400.401C217.052 399.158 221.757 398.27 224.953 397.737L229.215 501.075C221.757 503.206 211.725 505.603 199.119 508.266C186.69 511.107 172.219 512.972 155.706 513.859C121.26 515.457 93.206 511.817 71.544 502.94C50.0597 494.062 35.1449 480.212 26.7997 461.391C18.6321 442.393 17.2117 418.689 22.5384 390.28L86.9915 0.897719Z" fill="black"/>
</svg>
